<?xml version="1.0" standalone="no"?>
<!DOCTYPE svg PUBLIC "-//W3C//DTD SVG 20010904//EN"
 "http://www.w3.org/TR/2001/REC-SVG-20010904/DTD/svg10.dtd">
<svg version="1.0" xmlns="http://www.w3.org/2000/svg"
 width="2000.000000pt" height="2000.000000pt" viewBox="0 0 2000.000000 2000.000000"
 preserveAspectRatio="xMidYMid meet">

<g transform="translate(0.000000,2000.000000) scale(0.100000,-0.100000)"
fill="#000000" stroke="none">
<path d="M0 10000 l0 -10000 10000 0 10000 0 0 10000 0 10000 -10000 0 -10000
0 0 -10000z m12408 3794 c25 -133 112 -284 228 -395 119 -113 246 -185 383
-215 l76 -17 -66 -13 c-267 -50 -522 -288 -608 -568 -12 -37 -21 -83 -21 -101
0 -19 -4 -37 -10 -40 -6 -4 -10 10 -10 33 0 96 -79 274 -172 389 -127 156
-317 268 -493 291 l-60 7 80 17 c151 30 269 90 385 196 130 118 225 276 252
415 7 37 15 67 18 67 3 0 11 -30 18 -66z m-5903 -896 l37 -63 -11 -1790 c-6
-984 -13 -1804 -16 -1821 -3 -31 -3 -32 48 -38 29 -3 69 -6 89 -6 65 0 68 -4
68 -91 l0 -79 -605 0 -606 0 3 83 3 82 99 8 c55 4 101 9 102 10 5 4 -18 3331
-22 3336 -3 4 -107 -16 -190 -36 -19 -4 -25 4 -48 74 -30 90 -30 93 -13 93 6
0 233 68 502 150 270 82 497 149 506 149 10 1 32 -24 54 -61z m7867 -2 l38
-64 -15 -1818 c-8 -999 -13 -1819 -11 -1821 3 -3 163 -21 199 -23 4 0 7 -36 7
-80 l0 -80 -555 -2 c-305 -1 -576 -2 -602 -3 l-48 0 0 85 0 85 98 6 c54 4 100
9 103 12 7 7 -21 3325 -28 3332 -3 4 -50 -3 -103 -15 -54 -11 -99 -19 -101
-17 -8 7 -57 157 -53 160 8 7 1004 306 1019 306 8 0 32 -28 52 -63z m-8952
-701 l0 -555 -72 0 c-40 0 -90 3 -110 6 l-38 7 0 86 c0 47 -3 110 -6 139 l-7
52 -121 74 c-227 139 -441 257 -681 376 -224 111 -443 210 -465 210 -6 0 -10
-313 -10 -840 l0 -840 525 0 525 0 0 -105 0 -105 -525 0 -525 0 0 -745 0 -745
248 0 c136 0 271 -3 300 -6 l52 -7 0 -93 0 -94 -905 0 -905 0 0 94 c0 112 -9
106 158 106 l112 0 0 1670 0 1670 -43 0 c-24 0 -85 3 -135 6 l-92 7 0 93 0 94
1360 0 1360 0 0 -555z m2905 -596 c533 -65 913 -412 1010 -922 82 -428 -9
-901 -240 -1248 -157 -236 -443 -415 -775 -486 -116 -24 -388 -24 -515 1 -256
49 -444 140 -607 294 -168 159 -272 352 -326 607 -23 106 -26 144 -26 330 -1
182 2 224 22 319 70 329 229 639 408 791 203 172 437 278 704 319 56 8 261 5
345 -5z m2245 -164 l0 -95 -105 0 c-58 0 -105 -3 -105 -8 0 -12 429 -1584 438
-1605 4 -11 42 173 100 495 52 282 118 646 148 809 30 163 54 299 54 303 0 3
-43 6 -95 6 l-95 0 0 95 0 95 643 -2 642 -3 3 -92 3 -93 -97 0 c-72 0 -95 -3
-92 -12 2 -7 101 -372 219 -810 118 -438 216 -789 218 -780 2 9 72 373 155
807 l152 790 -108 3 -108 3 0 94 0 95 429 0 c235 0 449 -3 475 -6 l46 -7 0
-88 0 -88 -82 -3 -81 -3 -67 -180 c-37 -99 -228 -612 -425 -1140 -196 -528
-361 -964 -365 -968 -8 -9 -382 -36 -496 -37 l-62 0 -120 333 c-66 182 -189
524 -273 759 -95 266 -156 423 -161 414 -4 -7 -121 -339 -259 -737 -139 -398
-255 -728 -260 -733 -11 -13 -557 -42 -568 -31 -5 6 -80 199 -166 430 -87 231
-283 751 -435 1155 l-276 735 -82 3 -82 3 0 94 0 95 670 0 670 0 0 -95z m5298
-2 l-3 -88 -116 -5 -115 -5 250 -842 c138 -463 253 -844 256 -846 3 -3 106
371 229 831 123 461 226 842 228 849 3 9 -26 13 -114 15 l-118 3 -3 88 -3 87
486 0 486 0 -3 -87 -3 -88 -81 -3 -80 -3 -369 -857 c-499 -1160 -543 -1260
-720 -1617 -230 -464 -447 -846 -656 -1155 -55 -80 -105 -153 -113 -164 -14
-17 -36 2 -338 289 -178 169 -323 311 -323 316 0 4 77 55 172 113 226 137 439
280 648 436 150 111 341 264 385 307 13 14 -2 14 -135 9 l-150 -7 -430 1165
-430 1165 -80 3 -80 3 -3 88 -3 87 666 0 666 0 -3 -87z"/>
<path d="M7735 11158 c-8 -23 -44 -241 -60 -363 -61 -464 -2 -863 159 -1089
121 -169 307 -283 545 -331 64 -13 85 -14 91 -5 9 14 44 221 62 360 7 53 13
207 13 350 0 280 -9 350 -66 525 -93 287 -308 477 -617 545 -103 23 -121 24
-127 8z"/>
</g>
</svg>
