<?xml version="1.0" standalone="no"?>
<!DOCTYPE svg PUBLIC "-//W3C//DTD SVG 20010904//EN"
 "http://www.w3.org/TR/2001/REC-SVG-20010904/DTD/svg10.dtd">
<svg version="1.0" xmlns="http://www.w3.org/2000/svg"
 width="1024.000000pt" height="1024.000000pt" viewBox="0 0 1024.000000 1024.000000"
 preserveAspectRatio="xMidYMid meet">

<g transform="translate(0.000000,1024.000000) scale(0.100000,-0.100000)"
fill="#000000" stroke="none">
<path d="M5017 7508 c-41 -52 -57 -95 -57 -157 0 -44 -3 -48 -78 -121 -74 -72
-167 -189 -174 -220 -2 -8 -9 -21 -16 -28 -7 -8 -9 -18 -6 -24 4 -6 2 -8 -3
-5 -14 9 -92 -151 -124 -250 -12 -40 -28 -74 -33 -76 -6 -3 -45 11 -86 30
-203 95 -314 124 -499 131 -143 5 -160 2 -161 -30 0 -5 51 -8 113 -8 179 -1
258 -16 442 -90 44 -17 102 -44 128 -58 56 -31 55 -26 17 -182 -30 -124 -56
-278 -70 -418 -15 -139 -3 -127 -130 -136 -101 -7 -384 -56 -388 -66 -2 -5
-10 -6 -18 -3 -8 3 -14 0 -14 -6 0 -6 -6 -8 -14 -5 -7 3 -39 -1 -70 -9 -50
-14 -58 -14 -72 0 -34 34 -136 291 -155 388 -7 39 -13 135 -14 215 l0 145 108
0 107 -1 0 134 0 135 -28 -6 c-16 -3 -63 -9 -104 -13 -42 -3 -81 -10 -88 -14
-16 -10 -19 -142 -3 -147 7 -3 16 17 23 51 6 30 17 57 25 60 7 2 40 8 73 12
71 8 71 7 64 -98 l-5 -78 -96 0 c-85 0 -99 3 -122 23 -41 35 -69 96 -69 149 0
41 -3 48 -20 48 -17 0 -20 -7 -20 -52 0 -65 26 -124 71 -163 l34 -30 0 -140
c1 -77 7 -167 14 -200 22 -102 81 -274 123 -357 22 -43 38 -83 36 -88 -2 -6
-46 -26 -98 -44 -115 -39 -143 -54 -134 -68 4 -7 3 -8 -5 -4 -15 10 -53 -3
-46 -15 4 -5 -3 -9 -15 -9 -14 0 -19 -4 -14 -12 5 -7 2 -9 -9 -5 -26 10 -154
-81 -245 -174 -73 -74 -80 -85 -66 -96 15 -11 28 -1 97 68 65 65 259 209 281
209 3 0 29 11 58 24 68 31 195 76 213 76 8 0 27 -21 42 -47 15 -27 31 -49 35
-51 4 -2 8 -8 8 -14 0 -16 120 -196 215 -322 50 -65 94 -125 99 -132 7 -8 -2
-27 -29 -61 -22 -26 -42 -50 -45 -53 -30 -28 -212 -297 -265 -393 -21 -38 -44
-71 -53 -74 -40 -16 -310 105 -427 192 -91 67 -212 180 -220 206 -5 14 12 37
65 91 39 39 69 75 68 79 -2 4 -41 48 -87 98 l-84 92 -24 -28 c-13 -15 -38 -48
-55 -73 -18 -25 -38 -51 -45 -58 -18 -18 -16 -31 8 -71 26 -43 44 -61 62 -61
27 0 26 13 -3 50 -17 21 -30 42 -30 48 0 16 82 122 95 122 13 0 115 -107 115
-120 0 -16 -122 -130 -146 -136 -14 -4 -46 -4 -71 -1 -36 4 -54 13 -87 46 -33
32 -45 38 -54 29 -17 -17 -15 -24 16 -53 45 -43 97 -65 153 -65 l52 0 96 -98
c53 -54 125 -118 161 -142 92 -63 235 -134 329 -165 45 -15 84 -31 87 -36 2
-5 -15 -50 -40 -101 -56 -118 -103 -266 -121 -388 -25 -162 -16 -315 15 -236
5 14 14 76 19 138 17 195 43 288 139 501 22 48 36 67 50 67 10 0 88 -16 173
-34 85 -19 230 -44 323 -56 93 -12 173 -23 176 -25 4 -3 10 -33 14 -67 3 -35
10 -90 16 -123 5 -33 16 -109 25 -170 8 -60 27 -155 40 -210 13 -55 25 -108
25 -117 0 -18 -98 -69 -227 -119 -34 -13 -60 -26 -57 -30 2 -4 -6 -5 -18 -1
-12 3 -19 1 -15 -5 3 -5 -8 -9 -26 -9 -18 0 -67 -5 -110 -12 -43 -7 -129 -12
-192 -12 -118 0 -134 6 -118 47 4 11 3 14 -5 9 -7 -4 -12 -1 -12 8 0 8 5 18
10 21 6 3 10 35 10 71 l0 64 -131 0 -132 0 8 -87 c4 -49 7 -96 7 -106 -1 -10
10 -22 24 -27 35 -14 134 -13 134 1 0 6 -6 9 -14 6 -8 -3 -32 3 -54 15 -37 17
-42 25 -53 72 -19 88 -17 91 84 94 l87 3 0 -100 c0 -91 -2 -102 -25 -129 -34
-41 -84 -62 -144 -62 -45 0 -51 -2 -51 -21 0 -21 4 -21 65 -17 68 6 146 42
165 77 8 17 28 19 192 24 168 4 192 7 288 36 163 48 277 98 273 118 -1 5 8 8
20 7 12 -1 27 -3 32 -3 6 -1 19 -29 29 -64 63 -206 166 -376 324 -534 57 -57
63 -60 81 -39 13 16 -1 32 -19 21 -5 -3 -8 0 -5 7 3 7 -17 34 -43 59 -111 106
-206 260 -286 461 -48 123 -50 116 51 177 171 104 375 249 446 316 34 32 57
29 107 -16 19 -17 51 -43 70 -58 19 -14 37 -28 40 -31 3 -3 21 -17 40 -30 19
-13 37 -27 40 -31 9 -12 213 -143 265 -170 62 -32 63 -47 10 -180 -55 -138
-89 -204 -151 -290 -67 -93 -205 -239 -225 -239 -8 0 -46 34 -83 76 l-69 75
-69 -68 c-38 -37 -79 -81 -90 -97 -24 -32 -26 -28 46 -81 15 -11 41 -32 58
-47 36 -32 38 -32 69 -15 54 28 79 50 79 68 0 11 -3 19 -6 19 -16 0 -64 -36
-64 -48 0 -21 -39 -5 -89 37 -25 21 -46 42 -48 48 -4 12 72 99 100 114 16 9
26 3 61 -33 74 -77 86 -97 86 -148 0 -46 -24 -95 -66 -137 -17 -17 -18 -29 -3
-39 14 -8 79 59 97 99 6 15 12 51 12 80 0 51 1 52 73 122 160 154 260 310 333
524 16 46 35 86 42 89 7 2 41 -9 75 -26 206 -101 390 -141 610 -134 40 2 47 5
47 22 0 25 -17 26 -23 3 -4 -15 -5 -15 -6 -2 -1 14 -22 17 -134 22 -130 5
-189 16 -312 59 -113 40 -235 97 -242 113 -2 6 9 67 26 136 36 157 47 220 66
399 9 80 20 149 24 153 4 4 68 17 142 27 216 32 267 41 403 71 91 21 132 26
141 19 28 -24 122 -251 152 -369 8 -31 17 -131 20 -223 l6 -168 -112 0 -111 0
0 -109 c0 -105 1 -110 23 -117 12 -5 25 -7 30 -6 4 1 7 -3 7 -9 0 -13 124 -3
152 12 18 10 35 106 23 136 -6 16 -8 15 -20 -7 -8 -14 -15 -36 -15 -50 0 -14
-4 -30 -8 -36 -9 -16 -133 -34 -153 -23 -9 4 -19 5 -23 2 -3 -3 -6 4 -6 16 0
12 4 19 10 16 6 -3 10 -2 10 4 0 5 -6 11 -12 14 -10 4 -10 7 0 18 6 7 12 29
12 49 0 52 14 60 97 60 130 0 183 -43 191 -154 4 -56 13 -75 36 -76 4 0 6 34
4 76 -3 57 -8 79 -21 89 -9 7 -17 16 -17 21 0 4 -12 21 -27 37 -28 28 -28 29
-29 175 -1 134 -4 159 -36 282 -35 135 -53 183 -109 293 -17 32 -29 63 -27 68
2 6 42 23 88 39 107 36 286 128 364 188 34 26 92 78 129 116 59 60 66 71 53
84 -12 12 -19 9 -52 -29 -22 -23 -38 -47 -36 -53 2 -6 0 -8 -4 -4 -4 4 -30
-12 -58 -35 -28 -24 -80 -63 -116 -87 -36 -24 -66 -47 -68 -51 -2 -4 -10 -5
-18 -2 -8 3 -14 0 -14 -6 0 -6 -7 -11 -16 -11 -9 0 -12 -5 -8 -12 4 -7 3 -8
-4 -4 -6 4 -42 -6 -79 -23 -131 -56 -203 -69 -203 -36 0 16 -27 39 -32 28 -3
-4 -3 -2 -1 6 8 32 -184 322 -298 450 -27 30 -49 62 -49 70 0 8 15 31 34 51
61 64 194 248 277 385 97 160 88 157 244 90 17 -7 55 -23 85 -36 60 -24 205
-116 260 -164 54 -47 160 -157 160 -166 0 -5 -16 -25 -35 -45 -19 -20 -32 -41
-28 -46 3 -6 1 -8 -5 -4 -6 3 -26 -11 -46 -31 l-36 -38 92 -92 c86 -87 108
-100 108 -68 0 7 4 15 9 17 12 4 91 105 91 117 0 5 6 12 13 15 10 5 10 7 0 12
-7 3 -13 14 -13 24 0 10 -7 21 -16 24 -8 3 -13 10 -10 15 9 13 -31 44 -49 38
-12 -5 -10 -14 16 -50 25 -36 28 -47 20 -67 -11 -30 -74 -100 -88 -100 -14 0
-113 102 -113 116 0 17 105 121 140 139 48 25 138 -6 183 -62 22 -27 33 -29
41 -7 6 16 -40 62 -57 56 -5 -1 -6 2 -2 7 9 16 -51 41 -119 49 -57 7 -67 12
-97 47 -64 74 -104 112 -169 162 -69 53 -211 136 -270 158 -218 80 -211 73
-167 150 82 144 151 426 146 598 -2 61 -4 67 -23 67 -20 0 -21 -6 -24 -92 -7
-215 -35 -339 -120 -523 -25 -55 -47 -101 -48 -103 -6 -10 -43 -3 -224 44 -67
17 -378 64 -424 64 -41 0 -56 15 -56 58 0 71 -52 383 -84 507 -19 72 -30 135
-26 140 26 32 256 126 366 151 77 16 327 30 368 20 l26 -6 0 -108 0 -108 130
0 130 0 0 32 c0 18 -4 35 -9 38 -5 3 -9 33 -9 66 0 79 -21 100 -98 100 -53 0
-53 0 -37 -20 10 -11 29 -20 44 -20 36 0 46 -15 58 -90 8 -49 8 -66 -2 -72
-20 -12 -152 -9 -165 4 -7 7 -12 44 -12 96 0 68 4 91 21 119 27 43 70 66 139
73 40 4 55 9 55 20 0 19 -69 25 -124 10 -36 -9 -111 -70 -111 -90 0 -4 -18
-10 -39 -12 -22 -2 -37 1 -34 6 9 13 -272 -1 -337 -18 -125 -31 -180 -51 -274
-97 -55 -27 -103 -46 -107 -42 -4 5 -20 44 -34 88 -39 118 -120 274 -192 369
-74 99 -179 194 -195 178 -10 -10 -4 -18 97 -126 57 -60 144 -188 182 -266 19
-38 79 -189 95 -240 8 -24 -10 -49 -48 -65 -23 -9 -33 -19 -28 -26 4 -8 3 -9
-5 -5 -21 13 -288 -165 -276 -184 4 -6 -1 -7 -11 -3 -12 4 -15 3 -10 -5 4 -7
1 -12 -9 -12 -9 0 -52 -29 -96 -65 -44 -36 -83 -65 -87 -65 -4 0 -20 12 -37
28 -37 33 -82 70 -119 97 -15 11 -56 41 -89 66 -102 75 -233 150 -251 143 -11
-4 -16 -2 -14 7 2 7 -7 18 -20 24 -35 15 -37 47 -7 137 59 180 162 350 295
488 57 60 81 79 94 74 10 -4 48 -38 85 -77 l68 -70 86 89 c48 49 87 92 87 96
0 4 -39 37 -86 73 l-87 65 -28 -17 c-64 -38 -82 -58 -74 -82 l7 -23 31 30 c49
46 68 48 114 10 72 -58 72 -63 12 -124 -29 -30 -59 -54 -66 -54 -25 0 -132
121 -139 158 -9 47 9 100 50 148 26 31 32 44 23 53 -17 17 -23 14 -60 -31z
m-394 -984 c9 -4 17 -10 17 -15 0 -5 5 -9 10 -9 6 0 28 -12 49 -27 50 -36 63
-45 141 -95 60 -38 162 -114 214 -159 11 -10 30 -25 41 -33 20 -14 20 -15 -9
-45 -26 -27 -27 -35 -5 -33 4 1 5 -7 2 -17 -3 -10 -22 -27 -44 -36 -21 -10
-39 -22 -39 -27 0 -13 18 -10 23 5 4 9 6 9 6 -1 1 -16 -32 -29 -37 -14 -2 7
-14 4 -33 -10 -17 -13 -27 -28 -24 -36 3 -9 -1 -12 -15 -7 -11 4 -20 2 -20 -4
0 -6 4 -11 9 -11 5 0 15 -2 23 -5 7 -3 29 9 48 25 19 17 60 42 90 56 55 26 55
26 105 9 68 -24 165 -91 165 -114 0 -11 -16 -33 -36 -50 -19 -17 -32 -36 -29
-41 4 -6 -1 -7 -11 -3 -13 5 -16 3 -11 -10 4 -11 2 -14 -7 -11 -10 4 -13 -4
-11 -28 2 -18 3 -35 4 -37 1 -2 16 13 34 34 31 35 38 39 94 43 58 4 62 3 99
-31 39 -35 39 -36 39 -112 0 -75 -1 -77 -35 -105 l-35 -28 28 1 c15 1 27 6 27
12 0 5 12 19 27 30 21 18 27 32 31 77 4 57 -19 125 -38 113 -6 -3 -7 0 -5 7 3
8 -19 41 -50 75 -30 34 -55 68 -55 76 0 14 -143 116 -182 130 -21 7 -23 28 -6
45 9 9 8 16 -5 30 -9 10 -17 23 -17 29 0 6 35 39 78 74 42 35 79 66 82 69 10
12 257 177 312 209 32 18 62 30 67 27 29 -18 108 -430 114 -591 l2 -70 -32 -3
c-20 -2 -33 -9 -33 -17 0 -24 -17 -26 -77 -11 -75 19 -153 34 -153 30 0 -11
47 -44 64 -44 31 -1 143 -43 165 -62 21 -18 58 -125 68 -195 4 -33 2 -43 -8
-43 -182 1 -331 -7 -338 -19 -6 -10 -10 -9 -14 4 -5 12 -11 14 -26 5 -13 -7
-22 -7 -26 0 -3 5 -31 10 -60 10 -46 0 -59 5 -89 30 -41 37 -60 85 -51 133 6
28 3 37 -12 46 -15 9 -16 12 -3 20 8 6 11 13 7 17 -4 5 -31 -18 -59 -49 -28
-31 -54 -57 -58 -57 -4 0 -10 18 -14 40 -7 48 -57 107 -105 127 -19 8 -78 17
-130 20 -53 3 -100 9 -106 13 -5 5 -48 0 -95 -10 -47 -11 -91 -19 -97 -19 -7
-1 -13 -6 -13 -11 0 -6 11 -8 25 -4 14 3 31 2 38 -4 8 -7 27 -7 60 1 26 5 49
8 51 6 8 -8 11 -358 3 -365 -4 -4 -17 2 -30 13 -34 32 -62 43 -106 43 -51 0
-91 -15 -91 -34 0 -9 -6 -13 -13 -10 -7 2 -23 -6 -35 -18 -12 -13 -35 -36 -52
-53 -16 -16 -30 -34 -30 -38 0 -5 -10 -7 -21 -5 -16 2 -30 -9 -56 -46 -19 -27
-31 -56 -29 -63 4 -9 1 -11 -6 -7 -7 5 -9 2 -5 -9 4 -11 2 -14 -7 -11 -8 3
-18 -7 -26 -25 -13 -31 -44 -42 -53 -18 -3 9 -9 7 -24 -5 -21 -20 -53 -24 -53
-8 0 5 -23 38 -51 72 -55 69 -270 388 -290 431 -8 17 -9 31 -3 36 26 26 384
95 547 107 l97 7 0 -29 c0 -19 8 -34 21 -42 16 -11 19 -19 14 -40 -4 -15 -13
-56 -21 -91 -7 -35 -16 -73 -20 -83 -6 -19 -4 -19 25 3 17 12 31 31 31 42 0
10 10 52 22 94 23 81 49 109 118 131 34 11 34 11 -13 7 -46 -5 -49 -3 -59 26
-8 22 -15 29 -28 26 -37 -10 -41 4 -30 109 20 190 82 515 106 556 3 4 15 3 27
-3 12 -5 30 -12 40 -15z m391 -737 c68 -68 56 -183 -25 -231 -28 -16 -120 -22
-133 -8 -4 4 -13 7 -19 7 -19 0 -57 86 -57 128 0 72 51 132 120 139 37 4 92
-13 114 -35z m1221 2 c178 -33 312 -67 321 -80 3 -5 -6 -28 -20 -52 -28 -48
-32 -62 -14 -51 7 4 8 3 4 -5 -4 -6 -11 -9 -15 -6 -5 2 -46 -50 -91 -118 -118
-173 -232 -317 -252 -317 -9 0 -21 7 -26 16 -6 11 -17 15 -31 11 -16 -4 -26 2
-39 21 -9 15 -20 30 -25 33 -5 3 -8 9 -7 13 3 11 -63 116 -72 116 -16 0 -8
-68 11 -91 10 -13 33 -52 52 -87 30 -59 32 -66 20 -95 -7 -18 -14 -40 -14 -49
-1 -10 -4 -18 -8 -18 -3 0 -23 -25 -43 -55 -20 -30 -40 -55 -44 -55 -4 0 -26
18 -47 40 -22 22 -45 38 -52 36 -6 -3 -10 0 -8 7 3 12 -110 120 -134 128 -20
7 -1 39 24 39 32 0 85 39 119 88 28 40 31 50 34 150 3 59 9 110 14 113 5 4 1
47 -11 109 -26 126 -26 126 0 133 12 3 20 13 19 24 -5 43 -4 43 88 37 48 -3
159 -19 247 -35z m-1045 -199 l0 -100 50 0 50 0 0 -50 c0 -27 -4 -50 -10 -50
-5 0 -10 -13 -10 -28 0 -25 -15 -52 -29 -52 -4 0 -7 21 -9 46 -3 55 -8 65 -27
57 -11 -4 -15 -21 -15 -63 0 -77 -6 -90 -41 -90 -26 0 -30 5 -46 58 -9 31 -16
61 -14 66 5 21 -11 56 -44 97 l-36 42 59 56 c33 31 67 68 77 84 34 53 45 36
45 -73z m-350 -62 c12 4 13 2 2 -9 -10 -11 -4 -21 29 -55 l42 -42 24 29 c32
38 55 37 85 -3 28 -39 53 -92 38 -83 -5 3 -10 1 -10 -4 0 -17 -18 -13 -41 10
-11 11 -24 17 -27 13 -4 -3 -1 -9 6 -11 6 -3 12 -10 12 -17 0 -7 14 -31 32
-55 26 -36 30 -47 22 -69 -13 -37 -34 -38 -79 -2 -21 16 -44 30 -52 30 -8 0
-12 4 -8 9 9 15 -29 31 -79 33 -26 0 -50 6 -56 13 -5 6 -10 60 -11 119 -1 82
2 110 12 117 9 6 19 3 29 -9 9 -10 22 -17 30 -14z m939 -34 c-6 -17 -4 -26 5
-31 23 -13 56 -76 56 -106 0 -78 -59 -138 -145 -145 -44 -4 -55 -1 -83 23 -67
56 -81 133 -36 192 37 49 78 66 140 60 46 -5 51 -3 47 12 -3 11 1 18 10 18 12
0 13 -6 6 -23z m-1138 -5 c19 -7 43 -20 55 -30 11 -11 24 -16 28 -12 4 4 4 -1
0 -11 -4 -11 -3 -17 2 -14 11 7 16 -54 9 -98 -7 -42 -55 -90 -104 -105 -34
-10 -47 -9 -86 5 -61 24 -89 65 -90 132 0 61 23 99 76 126 40 21 63 22 110 7z
m932 4 c3 -5 -25 -40 -63 -78 l-68 -68 29 -24 c36 -31 36 -42 2 -75 -50 -48
-113 -58 -113 -19 0 23 19 41 36 34 15 -6 18 5 6 24 -6 9 -24 -1 -64 -37 -61
-54 -72 -58 -99 -34 -17 15 -18 14 -24 -12 -4 -16 -9 -35 -11 -42 -2 -8 5 -16
16 -19 28 -7 28 -53 0 -53 -15 0 -20 -7 -20 -25 0 -21 -18 -34 -33 -22 -2 1
-11 -4 -19 -11 -13 -10 -17 -10 -22 3 -4 11 -13 14 -26 10 -20 -6 -25 2 -21
33 1 6 -5 12 -12 12 -35 0 -29 55 6 66 19 6 19 8 4 19 -22 16 -22 24 1 25 9 0
35 2 57 4 22 2 48 4 58 5 9 1 17 8 17 16 0 8 5 15 10 15 6 0 10 6 10 13 0 8
11 27 25 43 25 30 29 37 26 64 -2 12 0 13 8 1 13 -20 31 18 31 68 0 22 6 46
13 53 16 15 231 25 240 11z m-1150 -234 c36 -40 60 -58 68 -54 8 5 10 4 5 -4
-4 -7 13 -30 43 -57 28 -26 51 -50 51 -55 0 -4 -17 -13 -38 -18 -43 -12 -102
-62 -124 -106 -10 -19 -17 -68 -20 -133 -3 -61 -9 -107 -16 -111 -13 -8 10
-137 32 -182 15 -29 5 -59 -19 -59 -10 0 -15 -10 -15 -30 0 -17 -5 -30 -12
-31 -39 -2 -138 4 -182 11 -28 5 -105 18 -171 29 -115 20 -273 56 -283 66 -11
11 14 62 95 186 105 163 248 358 268 365 8 3 24 -3 36 -15 17 -16 26 -18 41
-10 11 6 21 9 23 7 1 -2 17 -30 35 -63 18 -33 43 -75 55 -93 l23 -33 6 26 c8
30 -29 99 -46 89 -7 -4 -8 -2 -4 5 4 7 -1 31 -13 55 -35 76 -35 88 -1 152 41
76 78 124 94 124 7 0 38 -27 69 -61z m485 -17 c19 -24 9 -37 -29 -38 -24 0
-35 -5 -37 -17 -3 -15 6 -17 63 -17 82 0 105 -11 105 -50 0 -24 -5 -31 -27
-35 -16 -4 -46 -11 -68 -16 -22 -5 -50 -11 -63 -13 -13 -2 -38 -17 -56 -35
-17 -17 -36 -31 -41 -31 -15 0 -165 153 -165 167 0 10 24 13 90 13 l90 0 0 34
c0 63 6 69 69 61 34 -4 61 -13 69 -23z m716 -71 c42 -40 76 -79 76 -87 0 -11
-20 -14 -94 -14 l-95 0 -3 -47 c-3 -47 -3 -48 -40 -51 -20 -2 -47 3 -60 10
-13 7 -26 11 -30 10 -5 -1 -8 3 -8 9 0 5 -4 8 -9 5 -5 -3 -14 0 -20 7 -8 10
-7 14 2 15 6 1 31 5 55 8 63 9 56 34 -10 35 -77 3 -82 3 -95 12 -7 5 -13 19
-13 31 0 34 16 43 100 55 61 10 81 18 115 46 22 19 43 33 47 32 4 -1 41 -35
82 -76z m587 -129 c76 -87 261 -351 318 -455 30 -55 27 -65 -24 -78 -25 -6
-42 -15 -39 -21 3 -5 -6 -6 -22 -2 -19 5 -25 4 -20 -4 5 -8 2 -10 -8 -6 -9 4
-16 1 -16 -6 0 -9 -4 -10 -13 -2 -9 8 -34 7 -87 -4 -133 -25 -183 -34 -275
-44 -128 -14 -125 -15 -125 19 0 21 -6 32 -20 36 -22 7 -24 18 -11 61 8 26 16
62 36 159 l6 30 -28 -30 c-18 -19 -35 -55 -45 -96 -32 -120 -40 -131 -105
-156 -78 -29 -165 -46 -172 -34 -4 5 -6 87 -6 182 0 186 4 200 47 155 35 -38
100 -44 167 -16 34 15 50 27 47 36 -3 9 2 14 12 14 10 0 38 20 62 45 24 25 51
45 58 45 17 0 31 17 68 78 22 36 24 45 13 59 -12 14 -11 15 7 9 16 -5 23 0 32
19 12 26 31 32 48 15 8 -8 15 -6 24 5 19 23 44 18 71 -13z m-1305 -6 c19 -19
18 -30 -6 -51 -24 -21 -25 -32 -6 -32 8 0 14 5 13 10 -1 5 6 11 17 12 10 2 33
18 51 35 40 39 78 39 83 0 2 -18 -11 -43 -42 -83 -33 -43 -47 -70 -51 -105 -4
-26 -8 -53 -10 -59 -5 -16 -245 -19 -245 -3 0 5 -8 7 -17 4 -12 -4 -9 1 7 14
13 11 27 19 31 17 3 -3 30 17 60 44 l54 49 -27 27 c-16 15 -28 33 -28 39 0 15
48 61 73 69 9 4 17 11 17 17 0 14 9 13 26 -4z m-258 -11 c104 -42 122 -182 32
-241 -138 -92 -287 51 -201 192 20 33 72 63 108 64 13 0 40 -7 61 -15z m692
-35 c50 -45 59 -49 110 -52 l55 -3 3 -117 c2 -99 0 -118 -12 -118 -8 0 -21 8
-28 19 -7 10 -30 37 -51 61 l-39 42 -27 -26 c-36 -34 -50 -33 -91 8 -19 19
-39 32 -44 29 -5 -4 -5 0 0 8 4 8 9 20 11 28 3 22 25 39 30 24 3 -7 11 -13 18
-13 7 0 15 -6 18 -12 2 -7 8 -10 12 -5 5 4 0 17 -11 30 -35 40 -64 86 -64 101
0 61 40 60 110 -4z m410 24 c71 -28 103 -100 81 -179 -6 -23 -23 -48 -38 -59
-36 -26 -117 -32 -173 -13 -25 9 -41 16 -36 17 4 0 1 11 -8 26 -42 63 -12 174
57 208 41 20 67 20 117 0z m-575 -54 c8 -16 15 -42 15 -57 0 -49 21 -105 53
-146 l32 -39 -32 -25 c-27 -21 -30 -28 -21 -43 11 -17 12 -17 32 2 39 38 81
58 121 58 141 0 186 -195 63 -270 -86 -52 -208 15 -208 114 0 41 -18 96 -32
96 -4 0 -22 -20 -40 -45 -50 -68 -62 -58 -66 52 l-3 92 -42 3 -42 3 -5 63 c-3
35 -1 66 4 69 5 4 6 0 1 -8 -4 -8 2 -4 14 9 36 36 46 27 41 -35 -1 -17 4 -23
19 -23 19 0 21 6 21 73 0 41 3 77 7 80 17 18 53 6 68 -23z m-390 -260 c3 -5
-4 -23 -16 -39 -13 -18 -24 -50 -27 -81 -6 -67 15 -109 111 -215 20 -23 37
-50 37 -59 0 -15 92 -81 170 -121 24 -12 29 -20 21 -28 -17 -17 -13 -37 9 -55
11 -10 17 -22 12 -28 -16 -22 -203 -166 -312 -239 -63 -42 -115 -82 -115 -88
0 -7 -6 -13 -12 -13 -7 -1 -20 -2 -29 -3 -8 0 -12 -5 -9 -11 3 -5 -2 -10 -12
-10 -11 0 -24 -5 -31 -12 -18 -18 -37 6 -50 64 -40 187 -97 582 -86 600 3 4
18 8 35 8 19 0 29 5 29 15 0 20 29 19 115 -5 39 -11 81 -19 95 -19 l25 0 -29
25 c-22 19 -31 22 -42 13 -9 -7 -14 -8 -14 -1 0 6 -17 16 -37 23 -21 6 -59 21
-85 32 -52 22 -62 40 -93 162 -26 103 -40 95 159 95 103 0 177 -4 181 -10z
m201 -6 c34 -16 74 -81 74 -120 -1 -32 -36 -99 -65 -122 -33 -26 -111 -30
-154 -7 -53 27 -80 129 -50 188 6 12 25 34 41 50 36 32 99 37 154 11z m225
-89 c5 4 9 -1 9 -9 0 -21 -7 -20 -33 5 -12 12 -16 19 -9 15 7 -4 12 -2 13 6 1
7 3 5 6 -5 2 -9 9 -15 14 -12z m-20 -47 c1 -7 1 -16 0 -21 -3 -18 30 -78 58
-104 40 -39 91 -53 189 -53 44 0 84 -4 87 -10 9 -15 51 -11 147 13 95 25 108
24 108 -4 0 -15 7 -19 36 -19 l36 0 -7 -77 c-13 -150 -50 -370 -83 -503 -15
-60 -22 -76 -38 -78 -36 -5 -526 336 -542 376 -3 8 5 23 19 34 16 13 20 21 12
25 -19 7 -17 64 1 57 24 -9 166 76 166 100 0 14 -44 4 -67 -14 -15 -12 -20
-20 -12 -20 11 0 11 -2 -1 -10 -9 -6 -17 -5 -22 3 -4 7 -8 9 -9 5 -1 -5 -3
-12 -4 -18 -1 -5 -3 -13 -4 -17 -1 -5 -6 -1 -11 7 -7 11 -10 11 -10 2 0 -7 -4
-10 -10 -7 -6 3 -7 -1 -4 -9 3 -9 1 -16 -5 -16 -6 0 -11 4 -11 9 0 4 -17 4
-38 -2 -34 -9 -45 -7 -102 22 -70 36 -130 78 -130 93 0 5 31 39 70 75 38 36
88 90 111 119 40 52 68 68 70 42z m-1 -362 c0 -3 -4 -8 -10 -11 -5 -3 -10 -1
-10 4 0 6 5 11 10 11 6 0 10 -2 10 -4z m-1390 -726 c0 -5 -9 -10 -21 -10 -11
0 -17 5 -14 10 3 6 13 10 21 10 8 0 14 -4 14 -10z"/>
<path d="M5052 6764 c-80 -100 -95 -134 -58 -134 8 0 32 22 53 50 21 27 46 49
56 50 19 0 22 -51 17 -297 l-2 -113 25 0 25 0 -2 198 c-2 108 -1 203 2 210 8
24 30 11 71 -43 44 -58 52 -63 69 -42 9 10 5 21 -14 43 -14 16 -52 64 -85 107
-33 42 -63 77 -67 77 -4 -1 -45 -48 -90 -106z"/>
<path d="M3906 6362 c-2 -4 2 -31 9 -59 7 -28 17 -88 21 -132 6 -79 21 -110
44 -96 8 5 9 32 4 86 -6 69 -5 79 10 79 9 0 81 -66 161 -147 137 -141 145
-147 162 -130 17 16 14 21 -62 93 -268 256 -270 261 -142 241 64 -9 87 -5 87
16 0 16 -41 27 -104 27 -22 1 -70 7 -106 15 -78 17 -78 17 -84 7z"/>
<path d="M6341 6361 c-8 -5 -51 -13 -95 -17 -45 -4 -84 -9 -88 -10 -5 -1 -19
-2 -33 -3 -18 -1 -25 -7 -25 -22 0 -20 4 -21 78 -18 56 3 77 1 77 -8 0 -7 -65
-78 -144 -158 -136 -137 -143 -147 -127 -163 16 -16 25 -8 160 131 78 81 151
147 160 147 15 0 17 -6 12 -40 -3 -22 -9 -57 -12 -78 -4 -27 -1 -42 10 -51 22
-18 32 9 41 103 4 44 12 100 19 126 17 65 6 85 -33 61z"/>
<path d="M3525 5214 c-55 -46 -101 -90 -102 -97 -2 -6 19 -28 45 -47 26 -19
49 -37 52 -40 3 -3 25 -21 50 -40 25 -19 48 -39 52 -45 5 -6 14 -3 25 8 17 18
17 19 -12 44 -116 98 -116 102 8 105 50 2 144 3 207 3 101 0 115 2 118 18 3
16 -12 17 -202 17 -146 0 -207 3 -212 12 -5 7 15 32 51 64 50 45 57 55 45 68
-7 9 -15 16 -19 16 -3 -1 -51 -39 -106 -86z"/>
<path d="M6637 5276 c-4 -10 13 -31 46 -58 59 -48 68 -59 61 -70 -3 -4 -97 -8
-210 -8 -197 0 -204 -1 -204 -20 0 -19 7 -20 204 -20 144 0 207 -3 212 -12 4
-6 -16 -32 -50 -62 -52 -46 -72 -86 -45 -86 9 0 129 92 179 137 8 8 24 20 35
28 18 13 18 14 3 15 -10 0 -18 4 -18 9 0 14 -177 161 -194 161 -7 0 -16 -7
-19 -14z"/>
<path d="M4155 4150 c-83 -83 -156 -150 -163 -150 -10 0 -12 13 -7 58 3 31 8
67 11 79 3 16 -2 24 -17 28 -27 9 -38 -8 -39 -60 -1 -33 -20 -165 -30 -200 -7
-28 1 -37 28 -30 15 4 79 12 142 19 104 10 115 13 115 31 0 18 -6 20 -77 17
-49 -2 -79 1 -83 8 -4 7 56 75 147 166 138 138 152 156 138 169 -14 13 -32 -2
-165 -135z"/>
<path d="M5970 4275 c-11 -13 9 -38 136 -166 82 -83 151 -152 154 -155 12 -13
-26 -20 -73 -13 -90 13 -97 12 -97 -16 0 -23 4 -25 40 -25 22 0 85 -7 141 -15
55 -8 105 -13 109 -10 5 3 5 15 -1 28 -5 12 -15 74 -22 137 -11 104 -14 115
-32 115 -18 0 -20 -7 -20 -77 0 -42 -3 -79 -7 -83 -4 -5 -76 60 -159 144 -84
83 -153 151 -154 151 -1 0 -8 -7 -15 -15z"/>
<path d="M5120 3710 c0 -241 -1 -243 -71 -155 -44 54 -74 67 -74 31 0 -20 153
-215 170 -215 6 -1 20 14 32 32 12 17 33 43 45 57 63 68 100 121 94 135 -10
27 -30 16 -74 -40 -24 -30 -49 -55 -56 -55 -14 0 -29 228 -20 310 8 66 -3 110
-26 110 -19 0 -20 -8 -20 -210z"/>
</g>
</svg>
