<?xml version="1.0" standalone="no"?>
<!DOCTYPE svg PUBLIC "-//W3C//DTD SVG 20010904//EN"
 "http://www.w3.org/TR/2001/REC-SVG-20010904/DTD/svg10.dtd">
<svg version="1.0" xmlns="http://www.w3.org/2000/svg"
 width="1024.000000pt" height="1024.000000pt" viewBox="0 0 1024.000000 1024.000000"
 preserveAspectRatio="xMidYMid meet">

<g transform="translate(0.000000,1024.000000) scale(0.100000,-0.100000)"
fill="#000000" stroke="none">
<path d="M5034 7617 c-34 -41 -44 -66 -44 -106 0 -22 -4 -43 -10 -46 -5 -3
-10 -13 -10 -21 0 -12 3 -12 21 -2 18 12 24 9 50 -20 16 -18 34 -30 39 -27 5
3 0 16 -13 28 -62 60 -69 116 -21 172 13 15 21 32 18 36 -7 12 -8 12 -30 -14z"/>
<path d="M5090 7545 c-7 -8 -19 -15 -26 -15 -8 0 -14 -10 -14 -22 0 -20 1 -20
19 -4 31 28 73 26 99 -6 13 -16 28 -26 33 -23 5 4 6 -1 3 -9 -7 -17 20 -23 30
-7 9 13 -93 94 -110 87 -9 -3 -12 -1 -9 4 10 16 -11 12 -25 -5z"/>
<path d="M4930 7417 c0 -8 -16 -27 -35 -43 -20 -16 -53 -56 -74 -89 -39 -60
-54 -91 -106 -215 -15 -36 -31 -68 -36 -71 -5 -3 -39 10 -75 28 -37 18 -75 33
-85 33 -10 0 -21 5 -24 11 -4 6 -13 8 -21 5 -7 -3 -16 -1 -19 4 -4 6 -17 10
-31 10 -14 0 -33 4 -42 9 -9 5 -63 12 -120 16 -83 6 -102 5 -102 -6 0 -11 24
-15 108 -17 129 -4 202 -25 374 -106 l36 -17 -20 -87 c-32 -144 -56 -273 -63
-343 l-6 -67 -67 -7 c-85 -8 -337 -54 -371 -66 -14 -6 -29 -16 -33 -22 -11
-18 -32 15 -77 125 -52 125 -70 206 -73 326 l-3 97 75 3 c41 2 79 7 83 11 4 4
4 39 0 77 l-8 69 -5 -65 -5 -65 -68 -3 c-55 -2 -73 1 -97 18 -34 24 -43 47
-49 123 -2 33 -21 17 -21 -19 0 -44 26 -101 51 -115 16 -8 19 -22 19 -92 0
-125 42 -310 92 -406 40 -76 38 -84 -27 -105 -30 -9 -55 -21 -55 -27 0 -5 -7
-9 -15 -9 -22 0 -132 -58 -180 -94 -49 -38 -115 -104 -115 -117 0 -5 -8 -9
-17 -9 -12 0 -14 -3 -7 -10 8 -8 26 3 60 36 68 64 140 117 215 156 59 31 161
68 187 68 6 0 40 -48 76 -107 35 -60 73 -117 84 -129 11 -11 30 -37 43 -56 13
-20 38 -54 56 -76 l32 -39 -29 -33 c-17 -19 -30 -37 -30 -42 0 -17 20 -7 40
22 23 33 41 38 60 16 6 -8 18 -12 25 -10 9 4 28 -18 54 -58 47 -74 55 -56 11
27 -37 70 -37 82 -3 148 15 29 26 55 25 59 -1 4 7 10 18 13 15 5 36 -10 90
-64 39 -39 75 -71 80 -71 15 0 12 20 -4 26 -8 3 -12 12 -9 20 3 8 0 14 -6 14
-17 0 -61 50 -67 77 -16 60 34 123 97 123 32 0 47 -7 99 -47 7 -6 16 -113 9
-113 -4 0 -5 -9 -2 -20 3 -11 -1 -27 -8 -36 -12 -14 -11 -16 6 -13 14 3 21 14
23 37 3 32 8 36 50 32 12 -1 22 3 22 9 0 6 -15 11 -34 11 l-34 0 -4 58 c-4 76
1 112 16 112 6 0 29 -18 51 -40 37 -38 39 -39 52 -20 18 25 38 25 64 1 23 -21
31 -75 12 -77 -7 -1 -16 -2 -19 -3 -3 0 4 -13 15 -27 23 -29 27 -54 11 -70
-15 -15 -78 6 -83 28 -3 10 -13 18 -24 18 -17 -1 -17 -1 0 -11 14 -8 17 -18
12 -36 -3 -15 -2 -22 4 -19 17 11 59 -12 63 -34 2 -11 8 -21 13 -20 10 0 11 4
14 35 0 8 8 15 16 15 8 0 15 6 15 13 0 9 13 14 35 15 20 1 33 -2 30 -7 -2 -5
7 -12 20 -15 17 -4 23 -11 18 -19 -4 -7 -9 -21 -10 -31 -4 -25 -49 -70 -62
-62 -5 4 -12 2 -16 -4 -3 -5 3 -10 14 -10 25 0 39 -25 46 -81 6 -42 23 -85 31
-76 3 2 0 16 -6 31 -15 41 -12 54 13 59 l22 4 -22 8 c-14 4 -23 17 -25 34 -2
15 -8 25 -16 23 -8 -1 -11 2 -7 8 3 6 11 8 16 5 5 -4 9 -1 9 4 0 6 18 11 40
11 26 0 40 -4 40 -13 0 -23 57 -57 95 -57 l35 0 0 -85 c0 -56 -4 -85 -11 -85
-6 0 -29 16 -50 35 -45 41 -50 42 -73 16 -10 -11 -23 -18 -29 -17 -7 2 -9 1
-4 -1 4 -3 5 -9 2 -13 -3 -5 17 -8 44 -7 43 2 54 -2 80 -27 37 -36 46 -74 28
-117 -20 -48 -44 -64 -93 -64 -54 0 -92 33 -100 87 -4 21 -11 38 -17 38 -6 0
-1 9 12 21 12 12 20 24 16 27 -3 3 -25 -13 -48 -36 -24 -23 -46 -42 -50 -42
-4 0 -7 11 -7 25 0 13 -8 29 -17 34 -10 6 -14 11 -10 11 4 0 3 10 -4 22 -10
18 -9 20 5 15 10 -4 15 -3 11 2 -3 5 1 12 7 14 7 3 -1 6 -19 6 -19 1 -36 8
-43 19 -10 16 -10 16 -20 0 -9 -15 -25 -18 -90 -18 -43 0 -81 4 -84 8 -2 4 15
28 38 52 36 37 41 47 29 58 -33 33 11 96 63 90 l29 -3 -23 -23 c-13 -13 -21
-26 -18 -30 9 -8 57 40 53 53 -4 8 23 11 63 6 6 0 10 -21 10 -46 0 -34 -3 -43
-14 -39 -8 3 -23 -7 -35 -24 -22 -32 -28 -62 -11 -62 6 0 10 8 10 18 0 23 29
64 41 57 5 -4 9 -18 9 -33 0 -16 4 -22 9 -16 11 11 20 154 9 148 -5 -3 -11 1
-14 9 -3 9 -16 13 -37 11 -114 -11 -133 -16 -159 -41 -26 -25 -27 -25 -52 -7
-14 11 -26 22 -26 27 0 4 -8 7 -17 7 -13 0 -9 -8 15 -31 52 -51 55 -107 7
-155 -19 -19 -35 -24 -75 -24 -42 0 -55 5 -75 26 -49 53 -19 147 55 178 29 12
31 14 12 15 -34 1 -85 -28 -78 -45 3 -7 0 -13 -6 -11 -7 1 -16 -19 -21 -47 -8
-40 -7 -54 7 -77 9 -16 16 -37 14 -46 -3 -16 8 -18 107 -21 60 -1 114 -7 119
-12 5 -5 2 -19 -8 -34 -9 -14 -16 -38 -16 -54 0 -42 20 -92 36 -92 8 0 14 -7
14 -16 0 -8 5 -12 10 -9 6 3 10 1 10 -5 0 -6 9 -20 20 -32 11 -12 20 -27 20
-33 0 -6 29 -28 65 -50 42 -26 64 -46 63 -56 -2 -9 3 -23 11 -32 18 -22 9 -32
-86 -104 -40 -30 -73 -59 -73 -64 0 -5 -11 -11 -25 -15 -14 -3 -25 -11 -25
-17 0 -6 -3 -8 -6 -4 -4 3 -21 -5 -39 -18 -17 -14 -37 -25 -43 -25 -7 0 -12
-3 -12 -7 0 -16 -63 -44 -73 -34 -11 11 -34 105 -43 176 -3 22 -8 47 -11 55
-6 16 -6 21 -18 148 -8 80 -7 83 13 89 12 3 22 10 22 15 0 10 36 8 118 -8 54
-11 35 11 -22 24 -73 17 -112 38 -121 65 -4 12 -9 29 -12 37 -3 8 -7 32 -10
53 -3 20 -10 40 -15 43 -11 7 -7 -32 10 -113 7 -34 6 -43 -4 -43 -8 0 -14 -6
-14 -14 0 -31 -24 -35 -130 -19 -58 8 -114 16 -125 16 -11 0 -59 10 -108 23
-48 12 -91 23 -95 23 -16 1 -12 42 6 68 11 15 46 69 78 118 32 50 66 99 76
109 19 21 23 36 10 36 -11 0 -37 -32 -88 -108 -24 -37 -49 -72 -54 -79 -6 -7
-10 -16 -10 -22 0 -5 -3 -11 -7 -13 -5 -1 -18 -21 -30 -43 -19 -35 -27 -40
-55 -39 -30 1 -79 18 -130 45 -21 11 -48 12 -48 2 0 -7 41 -26 143 -67 20 -8
37 -19 37 -24 0 -4 -18 -50 -39 -100 -22 -51 -45 -118 -51 -150 -6 -31 -15
-79 -21 -105 -12 -64 -12 -157 1 -157 10 0 14 43 10 108 -2 34 36 198 50 217
4 6 11 26 15 45 4 19 10 37 14 40 3 3 16 26 29 53 26 52 34 55 108 33 87 -26
262 -56 326 -56 35 0 68 -4 74 -8 7 -4 15 -34 18 -67 15 -130 40 -275 48 -275
5 0 6 -10 3 -21 -4 -12 -3 -24 2 -28 6 -3 13 -29 17 -58 l6 -51 -40 -18 c-22
-10 -40 -21 -40 -26 0 -4 -8 -8 -17 -8 -13 0 -14 -3 -6 -11 9 -9 23 -6 58 10
44 21 65 21 65 1 0 -12 43 -110 82 -185 40 -78 84 -138 147 -199 53 -52 83
-60 34 -10 -96 98 -179 230 -218 344 -14 40 -25 79 -25 85 0 11 74 65 90 65
12 0 187 127 251 182 30 26 61 48 67 48 7 0 29 -16 49 -36 21 -20 67 -57 103
-82 36 -26 67 -50 68 -54 2 -5 8 -8 13 -8 6 0 19 -8 29 -18 11 -10 39 -28 62
-40 80 -41 82 -44 68 -101 -10 -44 -52 -134 -107 -234 -10 -18 -30 -44 -45
-58 -16 -15 -28 -32 -28 -37 0 -14 -90 -92 -106 -92 -7 0 -34 23 -60 50 -37
39 -50 48 -60 39 -18 -15 -7 -32 17 -26 10 3 17 2 16 -2 -1 -3 11 -20 26 -36
65 -69 72 -136 19 -182 -14 -12 -23 -25 -19 -29 4 -4 23 10 42 32 29 32 35 47
35 84 0 43 4 50 61 105 33 33 80 89 104 125 45 68 119 216 131 264 7 29 11 29
72 11 30 -10 29 13 -1 24 -44 17 -50 34 -34 93 22 78 45 199 58 313 6 55 13
103 15 106 2 4 30 10 61 13 98 12 348 55 381 67 40 14 48 7 84 -63 56 -109 98
-275 98 -387 0 -39 -5 -72 -12 -79 -7 -7 -39 -13 -73 -13 l-60 -2 73 -7 c61
-5 77 -11 102 -35 l31 -29 -16 32 c-9 18 -20 32 -24 32 -5 0 -6 30 -4 68 7 91
-21 256 -56 337 -5 11 -16 38 -26 60 -9 22 -21 50 -27 62 -14 29 -5 49 27 57
70 18 131 56 90 56 -8 0 -15 -5 -15 -10 0 -6 -6 -10 -12 -9 -7 1 -20 0 -28 -4
-66 -25 -81 -26 -96 -9 -9 9 -47 64 -85 122 -90 136 -112 166 -160 218 -43 47
-45 54 -26 74 7 7 30 35 52 63 22 27 46 57 54 65 18 19 101 146 101 155 0 4 7
13 15 21 8 9 15 20 15 25 0 20 -16 7 -40 -31 -14 -22 -28 -40 -32 -40 -5 0 -8
-5 -8 -11 0 -13 -48 -83 -105 -154 -65 -81 -96 -102 -108 -71 -3 8 -14 12 -24
10 -13 -4 -23 5 -38 33 -11 21 -30 49 -42 63 -37 40 -29 0 12 -60 19 -29 35
-64 35 -79 0 -30 -21 -81 -32 -81 -5 0 -8 -4 -8 -8 0 -19 32 -7 41 15 5 14 17
23 29 23 11 0 29 6 40 12 18 11 23 9 45 -17 41 -50 215 -305 215 -315 0 -6 4
-10 9 -10 12 0 21 -39 10 -46 -20 -12 -156 -41 -299 -63 -160 -25 -149 -25
-160 3 -5 14 -14 26 -20 26 -5 0 -10 9 -10 19 0 27 -19 37 -26 14 -11 -37 -22
-47 -55 -56 -53 -13 -61 -29 -11 -21 37 6 42 4 36 -10 -4 -11 -1 -16 14 -16
39 0 43 -20 27 -136 -32 -238 -47 -306 -70 -332 -10 -11 -19 -9 -51 9 -21 13
-41 26 -44 30 -3 3 -30 21 -60 40 -30 18 -60 38 -67 44 -21 17 -36 29 -103 79
-89 67 -86 63 -67 84 25 27 12 62 -23 62 -44 0 -150 60 -150 85 0 13 168 180
175 174 3 -3 11 -23 18 -44 22 -62 51 -77 169 -86 105 -8 148 -4 148 13 0 6
-7 7 -16 4 -9 -3 -27 -9 -40 -12 l-24 -6 0 129 c0 71 3 133 7 136 3 4 15 0 25
-9 10 -10 40 -19 66 -22 48 -4 50 -3 115 57 l66 62 -20 22 c-12 12 -48 50 -82
85 -58 59 -62 62 -68 40 -5 -21 -9 -23 -67 -20 l-62 4 0 -36 c0 -35 -1 -36
-37 -36 -66 1 -99 52 -41 63 13 2 1 5 -27 6 -67 2 -82 12 -68 44 10 20 22 26
65 32 31 4 66 17 85 31 36 27 49 30 56 12 2 -7 8 -9 13 -5 5 5 2 14 -7 20 -20
15 -22 23 -19 72 2 40 55 95 91 95 65 0 119 -42 119 -91 0 -55 -33 -97 -89
-115 -24 -8 -29 -12 -15 -13 30 -1 84 19 84 31 0 6 8 16 17 23 23 17 33 163
12 176 -8 5 -63 9 -124 9 -60 0 -115 4 -122 8 -9 6 -7 15 7 37 36 55 23 104
-42 167 -15 14 -28 31 -28 37 0 6 -4 11 -10 11 -5 0 -10 8 -10 18 0 11 -16 27
-41 40 -46 25 -49 25 -49 14 0 -5 15 -14 34 -22 44 -17 39 -29 -36 -100 -32
-30 -58 -60 -58 -66 0 -5 7 -19 15 -30 13 -18 14 -17 9 9 -3 18 -1 26 5 22 6
-3 17 5 26 19 21 32 75 57 106 49 26 -7 66 -47 75 -76 11 -35 -6 -85 -37 -111
-54 -46 -136 -29 -160 32 -11 28 -14 30 -20 15 -4 -10 -8 -34 -8 -54 l-1 -37
132 -1 c72 -1 134 -4 137 -6 3 -3 -16 -27 -43 -52 l-47 -47 25 -15 c34 -21 33
-35 -7 -65 -54 -41 -106 -32 -65 11 12 13 17 23 11 23 -6 0 -24 -13 -40 -30
-36 -38 -83 -42 -83 -6 0 13 16 43 35 67 26 33 35 54 35 82 0 20 -4 37 -10 37
-5 0 -10 -17 -10 -37 0 -49 -12 -66 -41 -61 -18 2 -23 -2 -24 -17 0 -30 -30
-66 -48 -59 -13 5 -20 20 -32 74 -13 56 -20 72 -36 80 -10 6 -19 18 -19 28 0
14 -10 17 -55 17 -46 0 -59 4 -82 28 -25 24 -28 35 -27 85 1 33 -3 61 -10 65
-6 6 -3 6 8 3 11 -4 26 0 36 9 22 20 89 22 117 4 26 -16 53 -61 53 -88 0 -12
6 -21 13 -21 7 -1 5 -6 -5 -14 -10 -7 -18 -18 -18 -24 0 -6 -6 -12 -12 -15 -7
-2 -10 -8 -6 -12 5 -5 30 16 57 46 48 52 61 80 22 45 -25 -23 -37 -15 -44 29
-9 58 -46 81 -138 89 -43 4 -56 3 -39 -3 22 -8 12 -16 -14 -12 -5 1 -13 -4
-18 -11 -7 -9 -8 -7 -4 7 5 17 0 20 -34 23 -23 1 -40 -2 -40 -8 0 -6 10 -8 25
-4 l25 6 -2 -128 c-3 -143 2 -135 -74 -113 -23 7 -50 9 -60 5 -10 -4 -21 -7
-24 -8 -3 0 -21 -18 -41 -39 -20 -21 -41 -39 -47 -39 -6 0 -15 -8 -21 -17 -5
-10 -13 -15 -16 -11 -8 7 -55 -56 -55 -72 0 -6 -3 -10 -8 -10 -4 0 -12 -10
-17 -22 -7 -16 -18 -22 -34 -20 -13 1 -30 -3 -38 -9 -7 -7 -15 -10 -16 -8 -2
2 -26 33 -54 69 -28 36 -80 110 -117 165 -36 55 -71 105 -76 112 -14 17 -12
53 3 57 38 12 237 48 330 61 86 11 112 12 128 2 17 -10 22 -9 33 5 7 10 16 15
19 11 4 -3 7 -1 7 5 0 7 -7 12 -15 12 -11 0 -15 11 -15 43 1 100 64 437 82
437 5 0 18 -5 29 -10 12 -7 19 -7 19 -1 0 6 -9 15 -21 22 -24 13 -23 21 16
129 35 93 94 191 163 269 56 65 60 71 37 71 -8 0 -15 -6 -15 -13z m250 -1178
c0 -6 -4 -7 -10 -4 -5 3 -10 11 -10 16 0 6 5 7 10 4 6 -3 10 -11 10 -16z m195
-129 c3 -5 2 -10 -4 -10 -5 0 -13 5 -16 10 -3 6 -2 10 4 10 5 0 13 -4 16 -10z
m179 -239 c62 -41 74 -110 28 -155 -40 -38 -91 -44 -135 -17 -59 36 -64 106
-13 157 39 39 76 44 120 15z m-557 -217 c36 -7 66 -67 57 -113 -8 -39 -57 -88
-93 -93 -42 -6 -66 6 -90 45 -33 54 -27 95 24 154 11 13 56 16 102 7z m380
-196 c-3 -7 -5 -2 -5 12 0 14 2 19 5 13 2 -7 2 -19 0 -25z"/>
<path d="M5170 7419 c0 -5 5 -7 10 -4 6 3 10 8 10 11 0 2 -4 4 -10 4 -5 0 -10
-5 -10 -11z"/>
<path d="M5281 7413 c4 -10 42 -58 95 -120 49 -57 160 -303 143 -316 -2 -2
-47 -29 -99 -60 -52 -30 -103 -64 -112 -74 -26 -28 -46 -43 -58 -43 -5 0 -10
-4 -10 -10 0 -5 -7 -10 -15 -10 -8 0 -15 -4 -15 -8 0 -11 -85 -72 -99 -72 -12
0 -38 20 -90 69 -43 41 -212 154 -219 146 -3 -2 -10 3 -17 12 -8 10 -14 12
-19 5 -3 -6 11 -20 31 -33 21 -13 40 -26 43 -29 3 -3 30 -21 60 -40 30 -19 57
-37 60 -40 3 -3 21 -17 40 -30 47 -33 90 -75 90 -88 0 -5 -7 -12 -15 -16 -8
-3 -15 -13 -15 -23 0 -19 -44 -57 -93 -83 -25 -12 -26 -15 -10 -21 11 -4 33 3
57 19 66 41 106 55 122 41 8 -6 14 -8 14 -3 0 4 5 3 12 -4 17 -17 29 -15 22 3
-4 8 -13 15 -21 15 -11 0 -14 7 -10 22 3 12 2 29 -4 39 -9 18 4 35 81 98 40
33 42 35 100 71 30 19 57 37 60 40 17 18 118 80 131 80 10 0 20 -15 27 -37 27
-92 76 -418 66 -434 -3 -5 -13 -9 -23 -9 -10 0 -23 -11 -29 -24 -10 -22 -8
-26 9 -31 11 -4 19 -12 18 -18 -1 -7 3 -23 9 -37 9 -21 11 -22 11 -6 1 11 9
37 19 57 15 34 20 38 47 34 17 -2 57 -7 90 -10 51 -4 113 -16 328 -62 26 -5
28 -9 23 -34 -6 -33 9 -40 19 -9 4 14 13 19 23 16 9 -3 31 -8 47 -12 17 -4 35
-10 40 -14 16 -11 61 -20 68 -13 8 7 -57 38 -114 53 -22 6 -37 15 -34 20 4 6
-3 10 -15 10 -14 0 -19 -4 -14 -12 6 -10 5 -10 -7 -1 -9 7 -47 19 -85 28 -38
8 -94 21 -124 29 -30 8 -100 20 -155 26 -55 7 -105 14 -111 15 -6 2 -14 36
-18 77 -8 88 -19 150 -52 285 -32 136 -32 137 19 158 23 10 60 26 82 36 86 39
135 50 262 61 126 11 133 11 154 -8 13 -10 20 -14 16 -8 -3 6 9 27 27 47 31
34 68 46 119 38 4 0 7 5 7 13 0 16 -75 13 -95 -4 -6 -5 -15 -7 -18 -3 -4 3 -7
-1 -7 -9 0 -9 -7 -18 -15 -22 -8 -3 -15 -11 -15 -19 0 -10 -13 -12 -59 -6 -32
3 -76 5 -97 3 -123 -11 -160 -16 -170 -25 -6 -5 -28 -11 -49 -15 -21 -3 -72
-21 -113 -41 -41 -19 -80 -32 -87 -29 -7 2 -16 20 -20 38 -18 80 -139 295
-182 321 -7 4 -25 20 -40 34 -14 15 -24 22 -22 16z m339 -997 c0 -3 -4 -8 -10
-11 -5 -3 -10 -1 -10 4 0 6 5 11 10 11 6 0 10 -2 10 -4z"/>
<path d="M5080 7384 c0 -9 32 -33 44 -34 5 0 1 9 -9 20 -18 20 -35 26 -35 14z"/>
<path d="M5079 7124 c-19 -25 -39 -50 -45 -57 -20 -22 -36 -59 -29 -65 4 -4
20 10 37 31 53 65 58 55 58 -108 0 -122 2 -145 15 -145 13 0 15 23 15 150 0
83 4 150 8 150 5 0 25 -18 45 -40 39 -44 47 -48 47 -25 0 8 -3 15 -7 15 -5 0
-19 17 -33 37 -14 20 -37 51 -51 69 l-25 32 -35 -44z"/>
<path d="M4055 7105 c-5 -2 -27 -6 -47 -10 -32 -5 -38 -10 -38 -30 0 -29 16
-33 23 -6 3 15 18 20 66 26 33 4 61 11 61 16 0 9 -44 11 -65 4z"/>
<path d="M6200 7080 c8 -5 23 -10 33 -10 10 0 16 -4 12 -9 -3 -5 -1 -12 5 -16
6 -3 9 -19 8 -33 -1 -15 1 -33 5 -39 4 -7 0 -16 -10 -22 -16 -9 -16 -10 5 -11
23 0 23 2 18 66 -3 36 -8 70 -12 75 -3 5 -22 9 -42 9 -28 0 -33 -3 -22 -10z"/>
<path d="M6110 7010 c-3 -35 0 -64 10 -73 4 -5 30 -5 56 0 l49 8 -50 5 c-50 5
-50 5 -56 45 -4 29 -7 33 -9 15z"/>
<path d="M6270 6868 c-2 -86 -12 -205 -19 -223 -5 -11 -17 -42 -26 -70 -9 -27
-28 -73 -41 -101 -25 -53 -31 -79 -15 -70 12 8 61 110 61 127 0 8 4 19 10 25
10 10 24 65 40 159 12 70 12 185 0 185 -5 0 -10 -15 -10 -32z"/>
<path d="M4244 6796 c3 -12 8 -41 11 -66 13 -96 16 -110 27 -110 7 0 9 18 4
54 -4 37 -2 57 5 62 7 4 54 -36 117 -100 58 -58 109 -106 114 -106 25 0 -2 36
-88 116 -53 49 -100 91 -105 92 -5 2 -9 12 -9 23 0 17 6 18 60 12 42 -4 60 -2
60 6 0 10 -41 16 -102 14 -16 -1 -28 3 -28 7 0 4 -16 10 -36 12 -31 4 -35 2
-30 -16z"/>
<path d="M5957 6804 c-4 -4 -41 -9 -84 -11 -82 -4 -93 -7 -76 -24 6 -6 24 -7
53 0 79 18 79 3 -1 -80 -33 -35 -68 -74 -76 -86 -8 -13 -22 -23 -29 -23 -8 0
-14 -7 -14 -15 0 -8 -8 -15 -17 -15 -14 0 -14 -3 -5 -12 10 -10 34 9 116 95
56 59 106 107 110 107 10 0 56 51 56 61 0 10 -24 12 -33 3z"/>
<path d="M5950 6708 c0 -7 -3 -23 -6 -35 -4 -13 -2 -23 4 -23 12 0 22 59 10
66 -4 3 -8 -1 -8 -8z"/>
<path d="M5940 6620 c0 -5 5 -10 10 -10 6 0 10 5 10 10 0 6 -4 10 -10 10 -5 0
-10 -4 -10 -10z"/>
<path d="M5416 6470 c11 -11 124 -41 124 -34 0 7 -64 30 -100 38 -24 4 -31 3
-24 -4z"/>
<path d="M4700 6448 c-19 -5 -39 -14 -45 -20 -7 -8 -2 -9 15 -4 14 4 40 9 58
13 17 3 32 10 32 14 0 11 -14 10 -60 -3z"/>
<path d="M4613 6370 c1 -16 5 -30 10 -30 4 0 7 3 7 8 0 4 3 17 6 30 5 16 2 22
-9 22 -12 0 -16 -8 -14 -30z"/>
<path d="M4607 6323 c-11 -19 -19 -78 -9 -68 11 11 27 75 18 75 -2 0 -7 -3 -9
-7z"/>
<path d="M5611 6313 c0 -10 7 -34 15 -53 l14 -35 -5 34 c-3 18 -5 42 -5 52 0
11 -4 19 -10 19 -5 0 -10 -8 -9 -17z"/>
<path d="M6330 6290 c0 -5 4 -10 9 -10 6 0 13 5 16 10 3 6 -1 10 -9 10 -9 0
-16 -4 -16 -10z"/>
<path d="M6370 6270 c0 -5 5 -10 11 -10 11 0 71 -42 100 -70 34 -31 61 -51 65
-47 9 9 -9 33 -47 62 -22 17 -46 36 -54 43 -7 6 -21 12 -29 12 -9 0 -16 5 -16
10 0 6 -7 10 -15 10 -8 0 -15 -4 -15 -10z"/>
<path d="M6561 6129 c1 -15 69 -77 69 -62 0 5 -16 24 -35 43 -21 20 -35 28
-34 19z"/>
<path d="M3584 6057 c-3 -10 -19 -31 -35 -47 -16 -16 -29 -36 -29 -44 0 -9 -4
-16 -10 -16 -16 0 -12 -13 14 -42 30 -36 55 -37 27 -2 -11 14 -17 33 -14 42 8
23 54 72 68 72 15 0 75 -63 75 -78 0 -6 -14 -27 -31 -47 -45 -51 -21 -43 31
10 31 32 39 45 27 45 -9 0 -17 3 -17 8 0 4 -22 32 -50 62 -41 46 -50 52 -56
37z"/>
<path d="M4005 6032 c-16 -16 -43 -37 -58 -47 -15 -10 -26 -24 -23 -31 3 -8 0
-11 -10 -7 -7 3 -14 0 -14 -6 0 -6 4 -11 8 -11 5 0 37 -25 72 -55 35 -30 67
-55 72 -55 18 0 6 22 -32 57 -23 20 -37 40 -33 44 4 4 72 9 150 11 87 2 143 7
143 13 0 6 -52 9 -141 7 -171 -4 -182 2 -121 59 23 22 42 42 42 44 0 14 -29 2
-55 -23z"/>
<path d="M6170 6051 c0 -6 16 -22 35 -37 35 -26 46 -53 23 -55 -7 0 -35 -2
-63 -3 -27 -2 -77 -4 -110 -6 l-60 -3 60 -7 c33 -4 90 -8 128 -9 37 -1 67 -5
67 -9 0 -5 -18 -26 -40 -46 -22 -20 -37 -42 -34 -48 5 -7 11 -5 19 5 7 10 16
17 20 17 4 0 34 21 66 47 51 42 56 49 39 55 -11 4 -20 12 -20 18 0 5 -6 10
-14 10 -8 0 -16 7 -20 15 -3 8 -11 15 -18 15 -7 0 -25 11 -40 25 -29 27 -38
30 -38 16z"/>
<path d="M6602 6026 c-20 -19 -33 -38 -29 -42 4 -4 21 7 38 26 33 36 56 42
103 29 16 -5 32 -6 35 -3 11 11 -25 24 -67 24 -34 0 -49 -6 -80 -34z"/>
<path d="M4710 5996 c0 -2 16 -6 35 -8 19 -2 35 0 35 4 0 4 -16 8 -35 8 -19 0
-35 -2 -35 -4z"/>
<path d="M5455 5990 c-3 -5 -1 -10 4 -10 6 0 11 5 11 10 0 6 -2 10 -4 10 -3 0
-8 -4 -11 -10z"/>
<path d="M6697 5946 c4 -29 1 -39 -21 -59 -30 -28 -32 -37 -11 -37 8 0 15 4
15 9 0 5 6 16 13 23 34 36 37 46 27 72 -14 38 -30 32 -23 -8z"/>
<path d="M6540 5943 c0 -20 15 -42 50 -77 28 -27 53 -46 56 -43 4 3 -17 28
-46 56 -40 39 -50 54 -45 70 4 12 2 21 -4 21 -6 0 -11 -12 -11 -27z"/>
<path d="M3427 5893 c-7 -11 25 -44 60 -62 12 -6 41 -11 64 -11 39 0 47 -5
119 -77 86 -86 194 -160 206 -141 4 7 2 14 -4 16 -58 19 -266 197 -257 219 4
12 0 14 -22 8 -72 -18 -97 -12 -138 34 -13 14 -24 20 -28 14z"/>
<path d="M5710 5824 c0 -8 5 -12 10 -9 6 3 10 10 10 16 0 5 -4 9 -10 9 -5 0
-10 -7 -10 -16z"/>
<path d="M6565 5755 c-22 -24 -45 -44 -52 -44 -7 -1 -23 -12 -36 -25 -13 -12
-30 -25 -38 -28 -8 -3 -11 -9 -7 -13 4 -4 22 2 40 13 38 24 157 142 143 142
-6 0 -28 -20 -50 -45z"/>
<path d="M5630 5637 c-16 -13 -25 -87 -10 -87 11 0 23 56 16 69 -4 5 0 11 6
14 7 2 11 7 8 10 -3 3 -12 0 -20 -6z"/>
<path d="M6404 5636 c-3 -8 -11 -13 -19 -10 -7 3 -15 -2 -18 -10 -4 -9 -16
-16 -27 -16 -11 0 -20 -4 -20 -10 0 -5 3 -10 7 -10 14 0 103 44 103 51 0 16
-20 20 -26 5z"/>
<path d="M5233 5358 c-21 -10 -32 -28 -18 -28 10 0 65 30 65 35 0 8 -23 4 -47
-7z"/>
<path d="M4514 5352 c2 -4 -23 -32 -56 -62 -33 -30 -84 -77 -113 -103 -29 -26
-56 -44 -59 -38 -4 5 -1 29 6 54 12 45 7 77 -12 77 -5 0 -10 -17 -10 -39 0
-40 -14 -123 -25 -153 -6 -16 -3 -17 26 -12 19 4 39 11 45 15 6 5 14 6 17 3 9
-9 107 6 107 16 0 5 -28 10 -62 12 l-63 3 112 112 c78 78 107 113 97 117 -8 3
-13 2 -10 -2z m-218 -249 c-7 -7 -26 7 -26 19 0 6 6 6 15 -2 9 -7 13 -15 11
-17z"/>
<path d="M5695 5350 c-3 -5 -1 -10 4 -10 6 0 11 5 11 10 0 6 -2 10 -4 10 -3 0
-8 -4 -11 -10z"/>
<path d="M5716 5332 c-3 -6 39 -54 94 -108 55 -53 97 -100 95 -104 -3 -5 -32
-6 -65 -3 -49 5 -60 3 -60 -9 0 -12 18 -16 83 -21 45 -2 89 -6 97 -8 11 -3 16
6 17 31 1 19 0 29 -3 23 -10 -22 -24 -14 -24 13 0 15 4 23 11 19 7 -5 9 11 7
46 -2 41 -7 55 -20 57 -14 3 -15 -5 -11 -57 8 -88 10 -88 -129 48 -48 46 -88
79 -92 73z"/>
<path d="M5170 5315 c-10 -12 -10 -15 3 -15 19 0 31 16 18 24 -5 3 -14 -1 -21
-9z"/>
<path d="M5102 4965 c5 -116 3 -147 -8 -156 -11 -9 -18 -6 -34 12 -10 13 -19
28 -20 32 0 10 -26 37 -34 37 -3 0 -6 -4 -6 -10 0 -9 6 -18 53 -73 10 -12 28
-37 39 -56 l22 -35 20 29 c12 15 33 42 49 59 15 17 25 36 22 43 -2 8 4 13 17
13 17 0 18 3 8 15 -11 13 -15 11 -33 -13 -12 -15 -26 -30 -32 -34 -6 -5 -6 -8
0 -8 6 0 4 -4 -4 -9 -35 -23 -40 -4 -34 150 6 139 5 149 -12 149 -17 0 -18
-10 -13 -145z"/>
<path d="M4100 4872 c0 -33 -3 -75 -6 -93 -6 -28 -4 -32 7 -21 8 7 44 12 99
12 84 0 224 20 287 41 37 12 47 35 11 25 -13 -4 -40 -10 -60 -13 -21 -3 -38
-9 -38 -14 0 -4 -8 -8 -17 -8 -10 0 -66 -4 -125 -7 -130 -8 -138 -4 -138 72 0
29 -4 56 -10 59 -6 4 -10 -16 -10 -53z"/>
<path d="M3961 4904 c0 -11 3 -14 6 -6 3 7 2 16 -1 19 -3 4 -6 -2 -5 -13z"/>
<path d="M6113 4885 c0 -22 2 -30 4 -17 2 12 2 30 0 40 -3 9 -5 -1 -4 -23z"/>
<path d="M6250 4867 c0 -13 -6 -30 -12 -39 -17 -20 -96 -32 -114 -17 -11 9
-14 7 -14 -11 0 -22 2 -23 68 -16 37 4 71 11 75 15 12 12 17 91 6 91 -5 0 -9
-10 -9 -23z"/>
<path d="M3960 4846 c0 -40 3 -43 58 -52 29 -4 42 -3 42 5 0 6 -13 11 -28 11
-32 0 -52 16 -52 41 0 10 -4 21 -10 24 -6 4 -10 -8 -10 -29z"/>
<path d="M5640 4860 c0 -5 4 -10 9 -10 6 0 13 5 16 10 3 6 -1 10 -9 10 -9 0
-16 -4 -16 -10z"/>
<path d="M4530 4850 c0 -5 7 -10 16 -10 8 0 12 5 9 10 -3 6 -10 10 -16 10 -5
0 -9 -4 -9 -10z"/>
<path d="M6338 4854 c-5 -4 -8 -16 -8 -28 0 -14 3 -17 11 -9 6 6 9 19 7 28 -1
9 -6 13 -10 9z"/>
<path d="M5680 4840 c0 -5 7 -10 15 -10 8 0 15 5 15 10 0 6 -7 10 -15 10 -8 0
-15 -4 -15 -10z"/>
<path d="M5720 4832 c0 -10 46 -29 102 -41 71 -16 248 -26 248 -14 0 6 -45 13
-102 17 -57 3 -123 13 -147 22 -24 8 -50 13 -58 10 -7 -3 -13 -1 -13 4 0 6 -7
10 -15 10 -8 0 -15 -3 -15 -8z"/>
<path d="M4050 4730 c0 -5 5 -10 10 -10 6 0 10 5 10 10 0 6 -4 10 -10 10 -5 0
-10 -4 -10 -10z"/>
<path d="M3995 4720 l-40 -7 37 -2 c20 0 40 4 43 9 3 6 5 9 3 9 -2 -1 -21 -5
-43 -9z"/>
<path d="M5028 4446 c-36 -32 -36 -33 -17 -49 31 -27 55 -17 27 11 -9 9 -6 17
12 37 35 37 20 38 -22 1z"/>
<path d="M5166 4382 c-4 -7 -23 -19 -42 -27 -20 -8 -33 -19 -29 -24 11 -19 90
29 83 50 -3 10 -6 10 -12 1z"/>
<path d="M5060 4360 c0 -5 7 -10 16 -10 8 0 12 5 9 10 -3 6 -10 10 -16 10 -5
0 -9 -4 -9 -10z"/>
<path d="M3065 3731 c-3 -6 -17 -40 -31 -77 -22 -60 -23 -69 -10 -76 9 -5 16
-16 16 -25 0 -9 6 -13 15 -10 8 4 17 2 21 -4 7 -12 29 -6 29 8 0 5 8 17 18 27
21 21 21 38 3 79 -8 18 -17 40 -20 51 -5 14 -9 16 -20 7 -12 -10 -13 -8 -9 8
5 22 -1 28 -12 12z"/>
<path d="M3511 3701 l29 -29 0 -306 c0 -259 2 -312 16 -346 11 -27 21 -39 30
-36 8 3 21 9 29 12 8 3 15 1 15 -5 0 -6 -9 -11 -20 -11 -22 0 -27 -24 -8 -36
8 -5 9 -2 4 11 -5 15 -4 16 9 5 10 -8 15 -9 15 -1 0 6 5 11 11 11 11 0 9 -42
-4 -51 -16 -12 85 -51 141 -54 31 -2 49 -1 39 2 -34 9 -66 30 -111 71 l-45 41
-1 348 c-1 339 0 349 20 371 11 12 26 22 32 22 6 0 9 3 6 6 -4 3 -16 1 -27 -6
-14 -7 -21 -7 -21 0 0 6 -36 10 -94 10 l-94 0 29 -29z m137 -214 c-3 -67 -6
-81 -20 -83 -10 -1 -18 2 -18 7 0 5 -5 9 -11 9 -6 0 -9 -7 -6 -14 4 -10 1 -13
-7 -10 -10 4 -12 -2 -8 -23 4 -18 7 -22 10 -11 3 18 32 34 32 18 0 -6 -6 -10
-12 -11 -10 0 -10 -2 -1 -6 10 -3 10 -7 0 -18 -7 -7 -15 -11 -19 -9 -3 2 -10
-15 -14 -38 -6 -39 -8 -40 -14 -18 -7 24 -5 211 2 255 4 23 43 44 70 37 17 -4
18 -13 16 -85z"/>
<path d="M4007 3720 c48 -11 81 -36 97 -73 l14 -32 1 29 c1 29 37 66 75 77 12
3 -33 6 -99 6 -77 1 -108 -2 -88 -7z"/>
<path d="M4608 3723 c7 -3 16 -2 19 1 4 3 -2 6 -13 5 -11 0 -14 -3 -6 -6z"/>
<path d="M4645 3721 c-4 -7 6 -14 24 -17 17 -4 31 -10 31 -15 0 -14 26 -11 39
5 9 11 5 15 -24 20 -20 4 -42 9 -50 12 -7 3 -16 1 -20 -5z"/>
<path d="M5434 3698 c4 -23 3 -28 -3 -18 -8 12 -11 11 -16 -5 -4 -11 -13 -32
-21 -47 -18 -34 -18 -48 1 -48 8 0 15 -8 15 -17 1 -10 14 -45 30 -78 19 -39
28 -51 27 -35 -2 18 3 25 15 24 10 -1 23 10 30 26 7 16 16 26 21 23 13 -8 -1
49 -24 96 -10 22 -19 45 -19 51 0 5 -4 10 -10 10 -5 0 -10 11 -10 25 0 19 -5
25 -21 25 -19 0 -21 -4 -15 -32z"/>
<path d="M4440 3683 c-1 -22 -49 -61 -51 -41 -1 7 -1 16 0 21 0 4 -3 7 -9 7
-9 0 -15 -21 -11 -42 0 -5 -4 -8 -10 -8 -6 0 -9 6 -6 14 3 8 0 20 -8 26 -11 9
-12 -29 -9 -222 4 -276 4 -225 -2 -386 -4 -73 -3 -140 1 -150 6 -16 7 -16 21
2 8 11 14 15 14 9 0 -22 35 -6 50 23 8 16 18 31 23 32 4 2 7 50 7 107 0 99 -1
104 -20 100 -11 -2 -18 0 -15 6 4 5 1 9 -5 9 -6 0 -9 19 -8 48 1 26 -1 53 -5
60 -5 7 -4 12 2 12 6 0 11 6 11 13 0 6 5 19 10 27 9 13 11 13 20 0 7 -10 10
44 10 168 0 100 -2 182 -5 182 -3 0 -5 -8 -5 -17z m-53 -366 c-6 -19 -23 -18
-24 2 -1 14 3 18 13 14 8 -3 13 -10 11 -16z m-3 -93 c4 -10 2 -13 -6 -8 -8 5
-9 2 -5 -9 7 -18 -8 -24 -17 -8 -7 11 3 41 14 41 4 0 11 -7 14 -16z m-4 -53
c0 -6 -4 -13 -10 -16 -5 -3 -10 1 -10 9 0 9 5 16 10 16 6 0 10 -4 10 -9z"/>
<path d="M4350 3680 c0 -5 7 -7 15 -4 8 4 15 8 15 10 0 2 -7 4 -15 4 -8 0 -15
-4 -15 -10z"/>
<path d="M4830 3652 c0 -7 -4 -11 -9 -8 -5 3 -11 -4 -14 -15 -4 -14 -10 -18
-19 -13 -11 6 -11 5 0 -8 11 -14 10 -16 -9 -11 -20 6 -22 4 -16 -27 4 -18 7
-54 7 -81 0 -27 5 -49 10 -49 6 0 9 6 8 13 -2 8 12 12 50 11 l52 -2 0 50 c0
27 -6 63 -14 81 -18 41 -45 76 -46 59z"/>
<path d="M3145 3570 c-3 -5 -1 -10 4 -10 6 0 11 5 11 10 0 6 -2 10 -4 10 -3 0
-8 -4 -11 -10z"/>
<path d="M6495 3540 c-3 -6 1 -7 9 -4 18 7 21 14 7 14 -6 0 -13 -4 -16 -10z"/>
<path d="M3154 3526 c-3 -9 -10 -14 -14 -11 -4 3 -7 -6 -6 -19 0 -13 5 -22 9
-19 4 2 5 -8 3 -23 -6 -32 -27 -48 -39 -31 -13 19 1 -30 36 -120 23 -62 34
-79 40 -67 8 14 11 13 28 -5 10 -11 20 -26 21 -33 2 -7 11 -19 21 -26 9 -7 17
-19 17 -25 0 -8 -3 -7 -9 2 -7 11 -10 9 -16 -8 -5 -18 -9 -20 -21 -10 -16 13
-18 6 -5 -19 5 -9 17 -36 27 -59 18 -40 20 -41 40 -28 20 13 22 12 27 -11 2
-13 2 -22 -2 -19 -3 3 -12 -20 -21 -52 -13 -52 -18 -58 -45 -63 -25 -5 -22 -7
25 -13 30 -4 76 -7 102 -7 43 0 48 3 54 25 4 15 0 39 -10 59 -9 19 -16 38 -16
43 0 15 -24 63 -32 63 -4 0 -10 -4 -13 -10 -3 -5 -12 -10 -18 -10 -8 0 -7 3 2
9 10 7 12 21 7 55 -4 26 -11 44 -17 41 -5 -4 -9 8 -9 25 0 18 -4 29 -10 25 -6
-4 -9 4 -7 17 1 15 -3 22 -12 20 -9 -2 -12 4 -8 18 3 12 0 23 -6 26 -7 2 -13
18 -14 34 -1 16 -11 48 -22 70 -11 22 -23 54 -26 70 -4 17 -11 30 -16 30 -5 0
-9 9 -9 20 0 22 -16 27 -23 8 -2 -7 -8 -10 -12 -6 -4 4 -2 14 5 23 7 9 10 18
7 22 -4 3 -9 -2 -13 -11z m130 -481 c-4 -8 -11 -12 -16 -9 -6 4 -5 10 3 15 19
12 19 11 13 -6z"/>
<path d="M2971 3504 c0 -11 3 -14 6 -6 3 7 2 16 -1 19 -3 4 -6 -2 -5 -13z"/>
<path d="M6142 3509 c3 -8 1 -25 -4 -38 -7 -21 -7 -22 7 -11 18 15 20 46 4 56
-7 4 -10 1 -7 -7z"/>
<path d="M5851 3484 c0 -11 3 -14 6 -6 3 7 2 16 -1 19 -3 4 -6 -2 -5 -13z"/>
<path d="M4871 3434 c0 -11 3 -14 6 -6 3 7 2 16 -1 19 -3 4 -6 -2 -5 -13z"/>
<path d="M7225 3439 c-4 -6 -5 -12 -2 -15 2 -3 7 2 10 11 7 17 1 20 -8 4z"/>
<path d="M5296 3398 c-10 -24 -31 -74 -48 -113 -53 -121 -58 -133 -58 -139 0
-3 -9 -25 -19 -49 -11 -23 -31 -67 -44 -98 -40 -89 -122 -145 -185 -125 -11 4
-23 2 -27 -4 -4 -7 52 -10 177 -9 146 1 174 3 138 11 -46 10 -86 38 -95 68 -6
18 23 103 74 220 52 117 112 272 108 277 -3 2 -12 -15 -21 -39z"/>
<path d="M5580 3395 c-7 -8 -19 -15 -27 -15 -8 0 -12 -4 -8 -9 6 -11 -15 -61
-26 -61 -4 0 -1 -16 7 -36 8 -20 13 -43 10 -50 -3 -8 -1 -14 4 -14 6 0 17 -18
26 -40 14 -34 20 -40 38 -34 11 4 30 7 41 6 15 -1 16 1 6 7 -11 7 -10 12 8 22
11 8 21 20 21 27 0 15 -30 90 -65 165 -19 41 -24 45 -35 32z"/>
<path d="M6618 3400 c6 -8 12 -24 12 -37 0 -18 6 -23 25 -23 29 0 32 17 8 37
-10 8 -12 12 -5 8 6 -3 12 -1 12 5 0 7 -7 9 -16 6 -9 -4 -24 -1 -33 6 -13 10
-14 10 -3 -2z"/>
<path d="M6271 3384 c-9 -10 -25 -15 -47 -12 -21 2 -35 -1 -38 -9 -4 -10 7
-12 44 -11 40 2 51 6 59 25 12 26 3 30 -18 7z"/>
<path d="M4725 3360 c-14 -26 -14 -29 0 -24 8 4 15 1 15 -5 0 -6 -13 -11 -30
-11 -16 0 -39 -5 -52 -10 -13 -6 -50 -14 -83 -19 -33 -5 -50 -9 -39 -10 12 0
33 -10 48 -22 33 -26 86 -102 86 -125 0 -16 1 -16 20 1 18 16 20 16 20 2 0
-19 15 -22 26 -5 4 7 3 8 -4 4 -7 -4 -3 9 9 29 l21 36 -25 23 c-14 13 -42 29
-62 36 -50 16 -39 32 31 46 62 12 114 33 114 47 0 16 -25 33 -52 35 -22 1 -31
-5 -43 -28z"/>
<path d="M4835 3380 c-3 -5 -1 -10 4 -10 6 0 11 5 11 10 0 6 -2 10 -4 10 -3 0
-8 -4 -11 -10z"/>
<path d="M6985 3340 c-7 -12 12 -50 25 -50 6 0 10 8 10 18 0 15 2 15 11 2 9
-13 10 -13 6 0 -2 9 -13 14 -25 12 -16 -2 -20 1 -16 12 7 18 -1 22 -11 6z"/>
<path d="M6628 3312 c-37 -22 -36 -34 2 -21 17 6 30 17 30 25 0 8 -1 14 -2 13
-2 0 -15 -8 -30 -17z"/>
<path d="M2875 3284 c-9 -22 -37 -91 -62 -154 -26 -63 -56 -134 -69 -157 -13
-26 -17 -40 -9 -36 14 5 37 49 50 93 4 14 15 43 25 65 43 96 54 123 71 170 21
60 17 73 -6 19z"/>
<path d="M6074 3305 c-4 -8 -11 -12 -17 -8 -6 3 -7 1 -3 -5 11 -18 23 -14 29
8 6 23 -1 27 -9 5z"/>
<path d="M7331 3301 c-9 -6 -10 -11 -2 -15 6 -4 11 -2 11 4 0 6 5 8 10 5 6 -3
10 -1 10 4 0 13 -10 14 -29 2z"/>
<path d="M6805 3280 c3 -5 8 -10 11 -10 2 0 4 5 4 10 0 6 -5 10 -11 10 -5 0
-7 -4 -4 -10z"/>
<path d="M7055 3280 c3 -5 8 -10 11 -10 2 0 4 5 4 10 0 6 -5 10 -11 10 -5 0
-7 -4 -4 -10z"/>
<path d="M3191 3184 c0 -11 3 -14 6 -6 3 7 2 16 -1 19 -3 4 -6 -2 -5 -13z"/>
<path d="M4771 3177 c-1 -5 3 -16 8 -25 6 -12 4 -24 -5 -37 -13 -17 -16 -18
-24 -5 -11 17 -12 15 -12 -59 -1 -41 -2 -43 -16 -25 -13 18 -14 17 -8 -10 9
-38 45 -113 61 -126 9 -8 20 -3 43 19 17 15 33 26 36 24 3 -3 9 -2 15 1 6 4 4
16 -5 34 -7 15 -14 34 -14 42 -1 16 -78 180 -79 167z"/>
<path d="M5692 3140 c0 -14 2 -19 5 -12 2 6 2 18 0 25 -3 6 -5 1 -5 -13z"/>
<path d="M5711 3102 c-1 -7 -4 -11 -8 -9 -5 3 -9 -9 -10 -26 l-2 -32 15 28 c8
16 13 34 10 40 -3 9 -5 8 -5 -1z"/>
<path d="M5710 3044 c-14 -13 -30 -22 -37 -19 -7 2 -12 1 -12 -3 3 -21 -3 -24
-17 -6 -15 19 -16 19 -9 -1 29 -83 24 -135 -13 -135 -9 0 -24 -5 -32 -10 -10
-7 26 -9 110 -9 69 1 116 3 105 6 -33 8 -41 22 -21 36 17 13 17 17 -14 90 -17
42 -33 77 -33 76 -1 0 -13 -11 -27 -25z"/>
<path d="M2680 2900 c-14 -11 -33 -20 -42 -20 -10 0 -18 -3 -18 -7 0 -5 64 -9
143 -9 107 -2 132 0 102 7 -22 6 -49 10 -60 10 -32 -1 -86 20 -80 30 11 16
-19 9 -45 -11z"/>
<path d="M4885 2910 c-3 -5 -1 -10 4 -10 6 0 11 5 11 10 0 6 -2 10 -4 10 -3 0
-8 -4 -11 -10z"/>
<path d="M5811 2894 c0 -11 3 -14 6 -6 3 7 2 16 -1 19 -3 4 -6 -2 -5 -13z"/>
<path d="M3445 2880 c-3 -5 -1 -10 4 -10 6 0 11 5 11 10 0 6 -2 10 -4 10 -3 0
-8 -4 -11 -10z"/>
<path d="M3480 2870 c0 -5 5 -10 11 -10 5 0 7 5 4 10 -3 6 -8 10 -11 10 -2 0
-4 -4 -4 -10z"/>
<path d="M4265 2870 c-8 -13 25 -13 45 0 12 8 9 10 -12 10 -15 0 -30 -4 -33
-10z"/>
<path d="M4342 2869 c15 -10 184 -12 175 -2 -4 3 -48 7 -98 8 -51 1 -85 -2
-77 -6z"/>
</g>
</svg>
